<?xml version="1.0" standalone="no"?>
<!DOCTYPE svg PUBLIC "-//W3C//DTD SVG 20010904//EN"
 "http://www.w3.org/TR/2001/REC-SVG-20010904/DTD/svg10.dtd">
<svg version="1.0" xmlns="http://www.w3.org/2000/svg"
 width="445.000000pt" height="250.000000pt" viewBox="0 0 445.000000 250.000000"
 preserveAspectRatio="xMidYMid meet">

<g transform="translate(0.000000,250.000000) scale(0.100000,-0.100000)"
fill="#000000" stroke="none">
<path d="M0 1245 l0 -1245 2214 0 2213 0 7 586 c5 322 5 882 0 1245 l-7 659
-2213 0 -2214 0 0 -1245z m1177 417 c-14 -15 -16 -56 -19 -288 l-3 -271 -28
-36 c-49 -65 -150 -79 -257 -37 -35 14 -50 16 -59 7 -20 -20 -20 -2 2 76 22
76 37 99 37 54 0 -42 34 -61 115 -65 68 -4 76 -2 99 21 l26 26 0 254 c0 183
-3 256 -12 265 -9 9 2 12 52 12 60 0 62 -1 47 -18z m2293 -16 c0 -3 -4 -8 -10
-11 -5 -3 -10 -1 -10 4 0 6 5 11 10 11 6 0 10 -2 10 -4z m-44 -21 c-8 -8 -18
-15 -22 -15 -3 0 -1 7 6 15 7 8 17 15 22 15 5 0 3 -7 -6 -15z m84 -39 c0 -12
-5 -28 -11 -36 -8 -11 -9 -7 -4 17 4 17 1 42 -5 55 -11 22 -10 22 4 4 9 -11
16 -29 16 -40z m-134 -115 c-14 -57 -28 -106 -32 -110 -3 -3 -4 3 -1 14 3 11
16 67 29 124 13 58 24 98 26 90 2 -9 -8 -62 -22 -118z m-1433 -83 c-3 -206 -5
-223 -33 -238 -26 -14 -116 -22 -168 -14 -65 10 -82 34 -82 116 l0 68 45 0 45
0 0 -54 c0 -58 16 -86 50 -86 45 0 50 20 50 211 l0 179 48 0 48 0 -3 -182z
m304 162 c29 -26 39 -60 22 -71 -21 -13 -39 -11 -39 5 0 25 -30 47 -54 40 -53
-17 -48 -60 15 -131 70 -79 89 -112 89 -155 0 -77 -79 -123 -171 -98 -32 9
-44 18 -55 45 -18 45 -18 45 11 45 15 0 25 -6 25 -15 0 -16 30 -35 54 -35 20
0 46 27 46 49 0 9 -31 54 -70 100 -38 45 -71 90 -71 99 -8 107 20 140 122 141
42 1 60 -4 76 -19z m285 -102 l133 -121 3 121 c2 114 4 122 22 122 19 0 20 -8
20 -220 0 -185 -2 -220 -14 -213 -7 4 -69 58 -136 118 -67 61 -126 111 -130
113 -5 2 -11 -50 -12 -115 -2 -97 -6 -118 -18 -118 -13 0 -15 32 -18 218 -1
139 1 217 8 217 5 0 69 -55 142 -122z m694 76 c19 -15 19 -15 -1 -6 -11 5 -27
12 -35 15 -13 5 -13 6 1 6 8 1 24 -6 35 -15z m21 -46 c-3 -8 -6 -5 -6 6 -1 11
2 17 5 13 3 -3 4 -12 1 -19z m-37 -61 c0 -2 -13 -16 -30 -32 -36 -35 -40 -26
-5 10 24 23 35 30 35 22z m-63 -87 c-1 -12 -5 -16 -10 -11 -5 5 -6 14 -3 20
11 16 15 13 13 -9z m187 -42 c-15 -64 -45 -105 -67 -91 -7 4 -2 9 13 13 21 5
27 15 38 60 16 66 20 80 26 80 2 0 -2 -28 -10 -62z m-119 -50 c22 -22 31 -36
20 -30 -24 13 -80 72 -68 72 4 0 26 -19 48 -42z m-1351 -364 c31 -12 16 -22
-24 -17 -53 7 -53 -13 1 -27 33 -9 40 -15 37 -33 -2 -13 -14 -25 -29 -31 -35
-12 -99 1 -99 20 0 11 4 12 19 4 25 -13 71 -13 71 0 0 5 -18 14 -41 20 -46 13
-61 37 -34 56 20 15 72 18 99 8z m96 -54 c0 -53 -2 -60 -20 -60 -18 0 -20 7
-20 60 0 53 2 60 20 60 18 0 20 -7 20 -60z m144 54 c29 -11 16 -20 -24 -16
-52 5 -51 -10 3 -28 78 -27 39 -82 -46 -66 -23 4 -37 13 -37 22 0 11 4 12 19
4 25 -13 61 -13 61 0 0 5 -18 15 -40 21 -31 10 -40 17 -40 35 0 12 6 25 13 27
18 8 73 8 91 1z m216 -4 c0 -5 -16 -10 -35 -10 l-35 0 0 -50 c0 -43 -3 -50
-20 -50 -17 0 -20 7 -20 50 0 49 -1 50 -30 50 -16 0 -30 5 -30 10 0 6 35 10
85 10 50 0 85 -4 85 -10z m160 0 c0 -5 -20 -10 -45 -10 -33 0 -45 -4 -45 -15
0 -11 11 -15 40 -15 22 0 40 -4 40 -10 0 -5 -18 -10 -40 -10 -29 0 -40 -4 -40
-15 0 -11 12 -15 45 -15 25 0 45 -4 45 -10 0 -6 -28 -10 -65 -10 l-65 0 0 60
0 60 65 0 c37 0 65 -4 65 -10z m100 -11 l28 -22 28 22 c14 11 35 21 45 21 16
0 19 -8 19 -60 0 -53 -2 -60 -20 -60 -16 0 -20 7 -20 35 0 39 -5 42 -31 19
-16 -14 -20 -14 -43 1 l-26 17 0 -36 c0 -32 -3 -36 -25 -36 -24 0 -25 3 -25
60 0 54 2 60 20 60 12 0 34 -10 50 -21z m303 -36 c34 -56 35 -58 14 -61 -12
-2 -23 1 -25 7 -5 14 -89 15 -97 1 -7 -11 -45 -14 -45 -4 0 3 15 30 32 60 26
43 38 54 59 54 21 0 33 -11 62 -57z m174 41 c2 -6 -10 -8 -32 -6 -43 5 -48
-16 -5 -24 56 -12 66 -57 15 -70 -37 -9 -95 4 -95 22 0 11 4 12 19 4 24 -12
61 -13 61 -2 0 5 -18 16 -40 25 -43 16 -52 39 -22 56 21 13 94 10 99 -5z m243
6 c0 -5 -18 -10 -40 -10 -29 0 -40 -4 -40 -15 0 -11 11 -15 40 -15 22 0 40 -4
40 -10 0 -5 -18 -10 -40 -10 -29 0 -40 -4 -40 -15 0 -11 12 -15 45 -15 25 0
45 -4 45 -10 0 -6 -28 -10 -64 -10 l-64 0 -4 37 c-9 75 -3 83 63 83 33 0 59
-4 59 -10z m165 -4 c18 -13 19 -15 3 -33 -15 -17 -15 -20 4 -43 19 -23 19 -25
3 -28 -9 -2 -29 8 -44 22 -34 33 -51 33 -51 1 0 -18 -5 -25 -20 -25 -18 0 -20
7 -20 60 l0 60 53 0 c30 0 62 -6 72 -14z m179 -2 c9 -8 16 -17 16 -19 0 -15
-38 -35 -66 -35 -30 0 -34 -3 -34 -25 0 -18 -5 -25 -20 -25 -18 0 -20 7 -20
60 l0 60 54 0 c36 0 60 -5 70 -16z"/>
<path d="M2810 831 c-14 -27 -9 -34 18 -29 19 3 19 5 8 27 l-13 24 -13 -22z"/>
<path d="M3380 845 c0 -9 9 -15 25 -15 16 0 25 6 25 15 0 9 -9 15 -25 15 -16
0 -25 -6 -25 -15z"/>
<path d="M3560 845 c0 -9 9 -15 25 -15 16 0 25 6 25 15 0 9 -9 15 -25 15 -16
0 -25 -6 -25 -15z"/>
</g>
</svg>
